MutatorSansInstance_800-400.ufo
<glyph name="comma" format="2">
  <advance width="263"/>
  <unicode hex="002C"/>
  <outline>
    <contour>
      <point x="213" y="0" type="line"/>
      <point x="213" y="272" type="line"/>
      <point x="51" y="272" type="line"/>
      <point x="51" y="0" type="line"/>
      <point x="120" y="-14" type="line"/>
      <point x="112" y="12" type="line"/>
      <point x="90" y="-133" type="line"/>
      <point x="150" y="-135" type="line"/>
    </contour>
  </outline>
</glyph>
<glyph name="A" format="2">
  <advance width="912"/>
  <unicode hex="0041"/>
  <outline>
    <contour>
      <point x="18" y="0" type="line"/>
      <point x="248" y="0" type="line"/>
      <point x="438" y="780" type="line"/>
      <point x="240" y="780" type="line"/>
    </contour>
    <contour>
      <point x="149" y="134" type="line"/>
      <point x="695" y="134" type="line"/>
      <point x="695" y="312" type="line"/>
      <point x="149" y="312" type="line"/>
    </contour>
    <contour>
      <point x="571" y="0" type="line"/>
      <point x="894" y="0" type="line"/>
      <point x="672" y="780" type="line"/>
      <point x="366" y="780" type="line"/>
    </contour>
    <contour>
      <point x="295" y="564" type="line"/>
      <point x="572" y="564" type="line"/>
      <point x="572" y="780" type="line"/>
      <point x="295" y="780" type="line"/>
    </contour>
  </outline>
</glyph>
<glyph name="B" format="2">
  <advance width="904"/>
  <unicode hex="0042"/>
  <outline>
    <contour>
      <point x="50" y="0" type="line"/>
      <point x="342" y="0" type="line"/>
      <point x="342" y="780" type="line"/>
      <point x="50" y="780" type="line"/>
    </contour>
    <contour>
      <point x="299" y="341" type="line"/>
      <point x="511" y="341" type="line" smooth="yes"/>
      <point x="561" y="341"/>
      <point x="593" y="323"/>
      <point x="593" y="268" type="curve" smooth="yes"/>
      <point x="593" y="218"/>
      <point x="561" y="198"/>
      <point x="510" y="198" type="curve" smooth="yes"/>
      <point x="299" y="198" type="line"/>
      <point x="299" y="0" type="line"/>
      <point x="588" y="0" type="line" smooth="yes"/>
      <point x="824" y="0"/>
      <point x="881" y="91"/>
      <point x="881" y="221" type="curve" smooth="yes"/>
      <point x="881" y="339"/>
      <point x="821" y="403"/>
      <point x="722" y="420" type="curve"/>
      <point x="708" y="371" type="line"/>
      <point x="788" y="387"/>
      <point x="860" y="443"/>
      <point x="860" y="554" type="curve" smooth="yes"/>
      <point x="860" y="692"/>
      <point x="788" y="780"/>
      <point x="558" y="780" type="curve" smooth="yes"/>
      <point x="299" y="780" type="line"/>
      <point x="299" y="592" type="line"/>
      <point x="492" y="592" type="line" smooth="yes"/>
      <point x="546" y="592"/>
      <point x="576" y="572"/>
      <point x="576" y="523" type="curve" smooth="yes"/>
      <point x="576" y="467"/>
      <point x="544" y="453"/>
      <point x="492" y="453" type="curve" smooth="yes"/>
      <point x="299" y="453" type="line"/>
    </contour>
  </outline>
</glyph>
<glyph name="C" format="2">
  <advance width="998"/>
  <unicode hex="0043"/>
  <outline>
    <contour>
      <point x="680" y="351" type="line"/>
      <point x="669" y="246"/>
      <point x="616" y="208"/>
      <point x="526" y="208" type="curve" smooth="yes"/>
      <point x="487" y="208" type="line" smooth="yes"/>
      <point x="390" y="208"/>
      <point x="336" y="261"/>
      <point x="336" y="393" type="curve" smooth="yes"/>
      <point x="336" y="521"/>
      <point x="390" y="572"/>
      <point x="487" y="572" type="curve" smooth="yes"/>
      <point x="526" y="572" type="line" smooth="yes"/>
      <point x="615" y="572"/>
      <point x="668" y="536"/>
      <point x="679" y="435" type="curve"/>
      <point x="963" y="465" type="line"/>
      <point x="935" y="687"/>
      <point x="780" y="790"/>
      <point x="546" y="790" type="curve" smooth="yes"/>
      <point x="465" y="790" type="line" smooth="yes"/>
      <point x="201" y="790"/>
      <point x="35" y="665"/>
      <point x="35" y="393" type="curve" smooth="yes"/>
      <point x="35" y="118"/>
      <point x="201" y="-10"/>
      <point x="465" y="-10" type="curve" smooth="yes"/>
      <point x="546" y="-10" type="line" smooth="yes"/>
      <point x="781" y="-10"/>
      <point x="937" y="97"/>
      <point x="964" y="323" type="curve"/>
    </contour>
  </outline>
</glyph>
<glyph name="D" format="2">
  <advance width="907"/>
  <unicode hex="0044"/>
  <outline>
    <contour>
      <point x="50" y="0" type="line"/>
      <point x="332" y="0" type="line"/>
      <point x="332" y="780" type="line"/>
      <point x="50" y="780" type="line"/>
    </contour>
    <contour>
      <point x="285" y="570" type="line"/>
      <point x="416" y="570" type="line" smooth="yes"/>
      <point x="516" y="570"/>
      <point x="572" y="521"/>
      <point x="572" y="393" type="curve" smooth="yes"/>
      <point x="572" y="261"/>
      <point x="516" y="210"/>
      <point x="416" y="210" type="curve" smooth="yes"/>
      <point x="282" y="210" type="line"/>
      <point x="282" y="0" type="line"/>
      <point x="437" y="0" type="line" smooth="yes"/>
      <point x="703" y="0"/>
      <point x="873" y="122"/>
      <point x="873" y="393" type="curve" smooth="yes"/>
      <point x="873" y="661"/>
      <point x="703" y="780"/>
      <point x="437" y="780" type="curve" smooth="yes"/>
      <point x="285" y="780" type="line"/>
    </contour>
  </outline>
</glyph>
<glyph name="E" format="2">
  <advance width="809"/>
  <unicode hex="0045"/>
  <anchor x="403" y="822" name="top"/>
  <outline>
    <contour>
      <point x="55" y="0" type="line"/>
      <point x="337" y="0" type="line"/>
      <point x="337" y="780" type="line"/>
      <point x="55" y="780" type="line"/>
    </contour>
    <contour>
      <point x="131" y="557" type="line"/>
      <point x="761" y="557" type="line"/>
      <point x="761" y="780" type="line"/>
      <point x="131" y="780" type="line"/>
    </contour>
    <contour>
      <point x="131" y="0" type="line"/>
      <point x="761" y="0" type="line"/>
      <point x="761" y="223" type="line"/>
      <point x="131" y="223" type="line"/>
    </contour>
    <contour>
      <point x="131" y="319" type="line"/>
      <point x="664" y="319" type="line"/>
      <point x="664" y="462" type="line"/>
      <point x="131" y="462" type="line"/>
    </contour>
  </outline>
</glyph>
<glyph name="F" format="2">
  <advance width="796"/>
  <unicode hex="0046"/>
  <outline>
    <contour>
      <point x="50" y="0" type="line"/>
      <point x="346" y="0" type="line"/>
      <point x="346" y="780" type="line"/>
      <point x="50" y="780" type="line"/>
    </contour>
    <contour>
      <point x="131" y="566" type="line"/>
      <point x="746" y="566" type="line"/>
      <point x="746" y="780" type="line"/>
      <point x="131" y="780" type="line"/>
    </contour>
    <contour>
      <point x="131" y="268" type="line"/>
      <point x="698" y="268" type="line"/>
      <point x="698" y="450" type="line"/>
      <point x="131" y="450" type="line"/>
    </contour>
  </outline>
</glyph>
<glyph name="G" format="2">
  <advance width="1020"/>
  <unicode hex="0047"/>
  <outline>
    <contour>
      <point x="474" y="307" type="line"/>
      <point x="719" y="307" type="line"/>
      <point x="719" y="216" type="line"/>
      <point x="834" y="0" type="line"/>
      <point x="971" y="0" type="line"/>
      <point x="971" y="398" type="line"/>
      <point x="474" y="398" type="line"/>
    </contour>
    <contour>
      <point x="693" y="357" type="line"/>
      <point x="682" y="249"/>
      <point x="627" y="208"/>
      <point x="530" y="208" type="curve" smooth="yes"/>
      <point x="487" y="208" type="line" smooth="yes"/>
      <point x="390" y="208"/>
      <point x="336" y="261"/>
      <point x="336" y="393" type="curve" smooth="yes"/>
      <point x="336" y="521"/>
      <point x="393" y="572"/>
      <point x="495" y="572" type="curve" smooth="yes"/>
      <point x="538" y="572" type="line" smooth="yes"/>
      <point x="629" y="572"/>
      <point x="682" y="536"/>
      <point x="693" y="435" type="curve"/>
      <point x="962" y="465" type="line"/>
      <point x="934" y="687"/>
      <point x="783" y="790"/>
      <point x="551" y="790" type="curve" smooth="yes"/>
      <point x="466" y="790" type="line" smooth="yes"/>
      <point x="202" y="790"/>
      <point x="35" y="665"/>
      <point x="35" y="393" type="curve" smooth="yes"/>
      <point x="35" y="118"/>
      <point x="201" y="-10"/>
      <point x="465" y="-10" type="curve" smooth="yes"/>
      <point x="493" y="-10" type="line" smooth="yes"/>
      <point x="725" y="-10"/>
      <point x="876" y="100"/>
      <point x="902" y="328" type="curve"/>
    </contour>
  </outline>
</glyph>
<glyph name="H" format="2">
  <advance width="942"/>
  <unicode hex="0048"/>
  <outline>
    <contour>
      <point x="50" y="0" type="line"/>
      <point x="346" y="0" type="line"/>
      <point x="346" y="780" type="line"/>
      <point x="50" y="780" type="line"/>
    </contour>
    <contour>
      <point x="162" y="278" type="line"/>
      <point x="780" y="278" type="line"/>
      <point x="780" y="493" type="line"/>
      <point x="162" y="493" type="line"/>
    </contour>
    <contour>
      <point x="595" y="0" type="line"/>
      <point x="891" y="0" type="line"/>
      <point x="891" y="780" type="line"/>
      <point x="595" y="780" type="line"/>
    </contour>
  </outline>
</glyph>
<glyph name="I" format="2">
  <advance width="708"/>
  <unicode hex="0049"/>
  <outline>
    <contour>
      <point x="206" y="0" type="line"/>
      <point x="502" y="0" type="line"/>
      <point x="502" y="780" type="line"/>
      <point x="206" y="780" type="line"/>
    </contour>
    <contour>
      <point x="50" y="552" type="line"/>
      <point x="658" y="552" type="line"/>
      <point x="658" y="780" type="line"/>
      <point x="50" y="780" type="line"/>
    </contour>
    <contour>
      <point x="50" y="0" type="line"/>
      <point x="658" y="0" type="line"/>
      <point x="658" y="228" type="line"/>
      <point x="50" y="228" type="line"/>
    </contour>
  </outline>
</glyph>
<glyph name="J" format="2">
  <advance width="716"/>
  <unicode hex="004A"/>
  <outline>
    <contour>
      <point x="218" y="-10" type="curve" smooth="yes"/>
      <point x="495" y="-10"/>
      <point x="666" y="108"/>
      <point x="666" y="358" type="curve" smooth="yes"/>
      <point x="666" y="780" type="line"/>
      <point x="365" y="780" type="line"/>
      <point x="365" y="399" type="line" smooth="yes"/>
      <point x="365" y="277"/>
      <point x="305" y="228"/>
      <point x="201" y="228" type="curve" smooth="yes"/>
      <point x="169" y="228"/>
      <point x="131" y="230"/>
      <point x="91" y="239" type="curve"/>
      <point x="50" y="10" type="line"/>
      <point x="100" y="-4"/>
      <point x="156" y="-10"/>
    </contour>
  </outline>
</glyph>
<glyph name="K" format="2">
  <advance width="948"/>
  <unicode hex="004B"/>
  <outline>
    <contour>
      <point x="50" y="0" type="line"/>
      <point x="346" y="0" type="line"/>
      <point x="346" y="780" type="line"/>
      <point x="50" y="780" type="line"/>
    </contour>
    <contour>
      <point x="279" y="313" type="line"/>
      <point x="365" y="313" type="line"/>
      <point x="573" y="0" type="line"/>
      <point x="928" y="0" type="line"/>
      <point x="615" y="497" type="line"/>
      <point x="374" y="432" type="line"/>
      <point x="279" y="432" type="line"/>
    </contour>
    <contour>
      <point x="355" y="408" type="line"/>
      <point x="547" y="319" type="line"/>
      <point x="919" y="780" type="line"/>
      <point x="595" y="780" type="line"/>
    </contour>
  </outline>
</glyph>
<glyph name="L" format="2">
  <advance width="728"/>
  <unicode hex="004C"/>
  <outline>
    <contour>
      <point x="50" y="0" type="line"/>
      <point x="346" y="0" type="line"/>
      <point x="346" y="780" type="line"/>
      <point x="50" y="780" type="line"/>
    </contour>
    <contour>
      <point x="131" y="0" type="line"/>
      <point x="706" y="0" type="line"/>
      <point x="706" y="217" type="line"/>
      <point x="131" y="217" type="line"/>
    </contour>
  </outline>
</glyph>
<glyph name="M" format="2">
  <advance width="975"/>
  <unicode hex="004D"/>
  <outline>
    <contour>
      <point x="50" y="0" type="line"/>
      <point x="281" y="0" type="line"/>
      <point x="281" y="780" type="line"/>
      <point x="50" y="780" type="line"/>
    </contour>
    <contour>
      <point x="925" y="0" type="line"/>
      <point x="925" y="780" type="line"/>
      <point x="695" y="780" type="line"/>
      <point x="695" y="0" type="line"/>
    </contour>
    <contour>
      <point x="801" y="466" type="line"/>
      <point x="695" y="780" type="line"/>
      <point x="470" y="501" type="line"/>
      <point x="505" y="501" type="line"/>
      <point x="281" y="780" type="line"/>
      <point x="174" y="466" type="line"/>
      <point x="443" y="155" type="line"/>
      <point x="532" y="155" type="line"/>
    </contour>
  </outline>
</glyph>
<glyph name="N" format="2">
  <advance width="937"/>
  <unicode hex="004E"/>
  <outline>
    <contour>
      <point x="50" y="0" type="line"/>
      <point x="280" y="0" type="line"/>
      <point x="280" y="780" type="line"/>
      <point x="50" y="780" type="line"/>
    </contour>
    <contour>
      <point x="153" y="526" type="line"/>
      <point x="656" y="0" type="line"/>
      <point x="784" y="255" type="line"/>
      <point x="280" y="780" type="line"/>
    </contour>
    <contour>
      <point x="657" y="0" type="line"/>
      <point x="886" y="0" type="line"/>
      <point x="886" y="780" type="line"/>
      <point x="657" y="780" type="line"/>
    </contour>
  </outline>
</glyph>
<glyph name="O" format="2">
  <advance width="1013"/>
  <unicode hex="004F"/>
  <outline>
    <contour>
      <point x="465" y="-10" type="curve" smooth="yes"/>
      <point x="547" y="-10" type="line" smooth="yes"/>
      <point x="811" y="-10"/>
      <point x="978" y="118"/>
      <point x="978" y="393" type="curve" smooth="yes"/>
      <point x="978" y="665"/>
      <point x="811" y="790"/>
      <point x="547" y="790" type="curve" smooth="yes"/>
      <point x="465" y="790" type="line" smooth="yes"/>
      <point x="201" y="790"/>
      <point x="35" y="665"/>
      <point x="35" y="393" type="curve" smooth="yes"/>
      <point x="35" y="118"/>
      <point x="201" y="-10"/>
    </contour>
    <contour>
      <point x="487" y="208" type="line" smooth="yes"/>
      <point x="390" y="208"/>
      <point x="336" y="261"/>
      <point x="336" y="393" type="curve" smooth="yes"/>
      <point x="336" y="521"/>
      <point x="390" y="572"/>
      <point x="487" y="572" type="curve" smooth="yes"/>
      <point x="527" y="572" type="line" smooth="yes"/>
      <point x="624" y="572"/>
      <point x="678" y="521"/>
      <point x="678" y="393" type="curve" smooth="yes"/>
      <point x="678" y="261"/>
      <point x="624" y="208"/>
      <point x="527" y="208" type="curve" smooth="yes"/>
    </contour>
  </outline>
</glyph>
<glyph name="P" format="2">
  <advance width="866"/>
  <unicode hex="0050"/>
  <outline>
    <contour>
      <point x="50" y="0" type="line"/>
      <point x="346" y="0" type="line"/>
      <point x="346" y="780" type="line"/>
      <point x="50" y="780" type="line"/>
    </contour>
    <contour>
      <point x="254" y="559" type="line"/>
      <point x="471" y="559" type="line" smooth="yes"/>
      <point x="544" y="559"/>
      <point x="573" y="531"/>
      <point x="573" y="466" type="curve" smooth="yes"/>
      <point x="573" y="395"/>
      <point x="544" y="371"/>
      <point x="471" y="371" type="curve" smooth="yes"/>
      <point x="254" y="371" type="line"/>
      <point x="254" y="149" type="line"/>
      <point x="470" y="149" type="line" smooth="yes"/>
      <point x="751" y="149"/>
      <point x="843" y="259"/>
      <point x="843" y="466" type="curve" smooth="yes"/>
      <point x="843" y="671"/>
      <point x="751" y="780"/>
      <point x="471" y="780" type="curve" smooth="yes"/>
      <point x="254" y="780" type="line"/>
    </contour>
  </outline>
</glyph>
<glyph name="Q" format="2">
  <advance width="1013"/>
  <unicode hex="0051"/>
  <outline>
    <contour>
      <point x="472" y="-130" type="line"/>
      <point x="764" y="-130" type="line"/>
      <point x="647" y="139" type="line"/>
      <point x="370" y="135" type="line"/>
    </contour>
    <component base="O"/>
  </outline>
</glyph>
<glyph name="R" format="2">
  <advance width="877"/>
  <unicode hex="0052"/>
  <outline>
    <contour>
      <point x="543" y="0" type="line"/>
      <point x="845" y="0" type="line"/>
      <point x="791" y="152" type="line" smooth="yes"/>
      <point x="762" y="211"/>
      <point x="720" y="251"/>
      <point x="651" y="251" type="curve"/>
      <point x="461" y="251" type="line"/>
    </contour>
    <contour>
      <point x="50" y="0" type="line"/>
      <point x="346" y="0" type="line"/>
      <point x="346" y="780" type="line"/>
      <point x="50" y="780" type="line"/>
    </contour>
    <contour>
      <point x="254" y="559" type="line"/>
      <point x="477" y="559" type="line" smooth="yes"/>
      <point x="549" y="559"/>
      <point x="577" y="531"/>
      <point x="577" y="466" type="curve" smooth="yes"/>
      <point x="577" y="395"/>
      <point x="549" y="371"/>
      <point x="477" y="371" type="curve" smooth="yes"/>
      <point x="254" y="371" type="line"/>
      <point x="254" y="197" type="line"/>
      <point x="479" y="197" type="line" smooth="yes"/>
      <point x="751" y="197"/>
      <point x="848" y="300"/>
      <point x="848" y="490" type="curve" smooth="yes"/>
      <point x="848" y="679"/>
      <point x="746" y="780"/>
      <point x="475" y="780" type="curve" smooth="yes"/>
      <point x="254" y="780" type="line"/>
    </contour>
  </outline>
</glyph>
<glyph name="S" format="2">
  <advance width="871"/>
  <unicode hex="0053"/>
  <outline>
    <contour>
      <point x="837" y="237" type="curve" smooth="yes"/>
      <point x="837" y="424"/>
      <point x="732" y="481"/>
      <point x="519" y="498" type="curve" smooth="yes"/>
      <point x="409" y="506" type="line" smooth="yes"/>
      <point x="305" y="517"/>
      <point x="285" y="526"/>
      <point x="285" y="550" type="curve" smooth="yes"/>
      <point x="285" y="574"/>
      <point x="313" y="588"/>
      <point x="397" y="588" type="curve" smooth="yes"/>
      <point x="490" y="588" type="line" smooth="yes"/>
      <point x="600" y="588"/>
      <point x="701" y="576"/>
      <point x="778" y="561" type="curve"/>
      <point x="810" y="754" type="line"/>
      <point x="733" y="772"/>
      <point x="606" y="790"/>
      <point x="523" y="790" type="curve" smooth="yes"/>
      <point x="457" y="790" type="line" smooth="yes"/>
      <point x="168" y="790"/>
      <point x="42" y="700"/>
      <point x="42" y="530" type="curve" smooth="yes"/>
      <point x="42" y="362"/>
      <point x="162" y="301"/>
      <point x="361" y="283" type="curve" smooth="yes"/>
      <point x="467" y="274" type="line" smooth="yes"/>
      <point x="565" y="262"/>
      <point x="590" y="257"/>
      <point x="590" y="230" type="curve" smooth="yes"/>
      <point x="590" y="207"/>
      <point x="560" y="193"/>
      <point x="472" y="193" type="curve" smooth="yes"/>
      <point x="383" y="193" type="line" smooth="yes"/>
      <point x="261" y="193"/>
      <point x="151" y="204"/>
      <point x="65" y="222" type="curve"/>
      <point x="33" y="27" type="line"/>
      <point x="121" y="7"/>
      <point x="260" y="-10"/>
      <point x="351" y="-10" type="curve" smooth="yes"/>
      <point x="422" y="-10" type="line" smooth="yes"/>
      <point x="742" y="-10"/>
      <point x="837" y="95"/>
    </contour>
  </outline>
</glyph>
<glyph name="T" format="2">
  <advance width="845"/>
  <unicode hex="0054"/>
  <outline>
    <contour>
      <point x="274" y="0" type="line"/>
      <point x="570" y="0" type="line"/>
      <point x="570" y="780" type="line"/>
      <point x="274" y="780" type="line"/>
    </contour>
    <contour>
      <point x="23" y="554" type="line"/>
      <point x="822" y="554" type="line"/>
      <point x="822" y="780" type="line"/>
      <point x="23" y="780" type="line"/>
    </contour>
  </outline>
</glyph>
<glyph name="U" format="2">
  <advance width="938"/>
  <unicode hex="0055"/>
  <outline>
    <contour>
      <point x="468" y="-10" type="curve" smooth="yes"/>
      <point x="737" y="-10"/>
      <point x="878" y="106"/>
      <point x="878" y="353" type="curve" smooth="yes"/>
      <point x="878" y="780" type="line"/>
      <point x="578" y="780" type="line"/>
      <point x="578" y="329" type="line" smooth="yes"/>
      <point x="578" y="249"/>
      <point x="538" y="218"/>
      <point x="468" y="218" type="curve" smooth="yes"/>
      <point x="400" y="218"/>
      <point x="360" y="249"/>
      <point x="360" y="329" type="curve" smooth="yes"/>
      <point x="360" y="780" type="line"/>
      <point x="60" y="780" type="line"/>
      <point x="60" y="353" type="line" smooth="yes"/>
      <point x="60" y="106"/>
      <point x="198" y="-10"/>
    </contour>
  </outline>
</glyph>
<glyph name="V" format="2">
  <advance width="919"/>
  <unicode hex="0056"/>
  <outline>
    <contour>
      <point x="902" y="780" type="line"/>
      <point x="668" y="780" type="line"/>
      <point x="466" y="0" type="line"/>
      <point x="669" y="0" type="line"/>
    </contour>
    <contour>
      <point x="340" y="780" type="line"/>
      <point x="17" y="780" type="line"/>
      <point x="248" y="0" type="line"/>
      <point x="554" y="0" type="line"/>
    </contour>
    <contour>
      <point x="620" y="216" type="line"/>
      <point x="343" y="216" type="line"/>
      <point x="343" y="0" type="line"/>
      <point x="620" y="0" type="line"/>
    </contour>
  </outline>
</glyph>
<glyph name="W" format="2">
  <advance width="1036"/>
  <unicode hex="0057"/>
  <outline>
    <contour>
      <point x="1019" y="780" type="line"/>
      <point x="764" y="780" type="line"/>
      <point x="684" y="228" type="line"/>
      <point x="713" y="228" type="line"/>
      <point x="629" y="780" type="line"/>
      <point x="436" y="780" type="line"/>
      <point x="358" y="228" type="line"/>
      <point x="388" y="228" type="line"/>
      <point x="303" y="780" type="line"/>
      <point x="17" y="780" type="line"/>
      <point x="155" y="0" type="line"/>
      <point x="442" y="0" type="line"/>
      <point x="520" y="476" type="line"/>
      <point x="477" y="475" type="line"/>
      <point x="569" y="0" type="line"/>
      <point x="884" y="0" type="line"/>
    </contour>
  </outline>
</glyph>
<glyph name="X" format="2">
  <advance width="899"/>
  <unicode hex="0058"/>
  <outline>
    <contour>
      <point x="533" y="0" type="line"/>
      <point x="883" y="0" type="line"/>
      <point x="567" y="454" type="line"/>
      <point x="368" y="780" type="line"/>
      <point x="18" y="780" type="line"/>
      <point x="325" y="356" type="line"/>
    </contour>
    <contour>
      <point x="17" y="0" type="line"/>
      <point x="280" y="0" type="line"/>
      <point x="436" y="320" type="line"/>
      <point x="591" y="337" type="line"/>
      <point x="880" y="780" type="line"/>
      <point x="617" y="780" type="line"/>
      <point x="454" y="486" type="line"/>
      <point x="299" y="462" type="line"/>
    </contour>
  </outline>
</glyph>
<glyph name="Y" format="2">
  <advance width="872"/>
  <unicode hex="0059"/>
  <outline>
    <contour>
      <point x="856" y="780" type="line"/>
      <point x="625" y="780" type="line"/>
      <point x="394" y="204" type="line"/>
      <point x="583" y="202" type="line"/>
    </contour>
    <contour>
      <point x="331" y="780" type="line"/>
      <point x="16" y="780" type="line"/>
      <point x="288" y="202" type="line"/>
      <point x="559" y="204" type="line"/>
    </contour>
    <contour>
      <point x="584" y="299" type="line"/>
      <point x="288" y="299" type="line"/>
      <point x="288" y="0" type="line"/>
      <point x="584" y="0" type="line"/>
    </contour>
  </outline>
</glyph>
<glyph name="Z" format="2">
  <advance width="866"/>
  <unicode hex="005A"/>
  <outline>
    <contour>
      <point x="50" y="217" type="line"/>
      <point x="392" y="172" type="line"/>
      <point x="815" y="563" type="line"/>
      <point x="474" y="608" type="line"/>
    </contour>
    <contour>
      <point x="50" y="563" type="line"/>
      <point x="815" y="563" type="line"/>
      <point x="815" y="780" type="line"/>
      <point x="50" y="780" type="line"/>
    </contour>
    <contour>
      <point x="50" y="0" type="line"/>
      <point x="815" y="0" type="line"/>
      <point x="815" y="217" type="line"/>
      <point x="50" y="217" type="line"/>
    </contour>
  </outline>
</glyph>
